<svg width="174" height="174" viewBox="0 0 174 174" fill="none" xmlns="http://www.w3.org/2000/svg">
<path d="M63.5359 78.9284C65.1306 77.8629 67.0055 77.2941 68.9234 77.2941C71.4947 77.2964 73.9599 78.3188 75.778 80.1369C77.5961 81.955 78.6185 84.4202 78.6208 86.9914C78.6208 88.9094 78.052 90.7843 76.9865 92.379C75.9209 93.9737 74.4064 95.2166 72.6344 95.9506C70.8625 96.6846 68.9127 96.8766 67.0316 96.5024C65.1505 96.1283 63.4226 95.2047 62.0664 93.8485C60.7102 92.4923 59.7866 90.7644 59.4125 88.8833C59.0383 87.0022 59.2303 85.0524 59.9643 83.2804C60.6983 81.5085 61.9412 79.994 63.5359 78.9284Z" fill="#222222"/>
<path fill-rule="evenodd" clip-rule="evenodd" d="M56.4436 41.2692C65.4884 35.2257 76.122 32 87 32C101.587 32 115.576 37.7946 125.891 48.1091C136.205 58.4236 142 72.4131 142 87C142 97.878 138.774 108.512 132.731 117.556C126.687 126.601 118.098 133.651 108.048 137.813C97.9977 141.976 86.939 143.065 76.2701 140.943C65.6011 138.821 55.801 133.583 48.1091 125.891C40.4173 118.199 35.179 108.399 33.0568 97.73C30.9347 87.061 32.0238 76.0023 36.1866 65.9524C40.3495 55.9025 47.399 47.3127 56.4436 41.2692ZM60.2406 99.9862C62.8107 101.704 65.8324 102.62 68.9234 102.62C73.067 102.616 77.0396 100.968 79.9696 98.0376C82.8996 95.1076 84.5476 91.135 84.5522 86.9914C84.5522 83.9004 83.6356 80.8787 81.9182 78.3086C80.2009 75.7385 77.76 73.7353 74.9043 72.5524C72.0485 71.3695 68.9061 71.06 65.8745 71.663C62.8428 72.2661 60.058 73.7546 57.8723 75.9403C55.6866 78.126 54.1981 80.9107 53.5951 83.9424C52.992 86.9741 53.3015 90.1165 54.4844 92.9723C55.6673 95.828 57.6705 98.2689 60.2406 99.9862ZM90.5776 102.577H96.5689V71.3199H90.5776V102.577ZM102.56 102.577H108.551V71.3199H102.56V102.577ZM114.543 102.577H120.534V71.3199H114.543V102.577Z" fill="#222222"/>
</svg>
